<svg version="1.1" id="svgLogo" xmlns="http://www.w3.org/2000/svg" xmlns:xlink="http://www.w3.org/1999/xlink" x="0" y="0"
	 viewBox="0 0 720 152" enable-background="new 0 0 720 152" xml:space="preserve">
	<path stroke="null" fill-rule="evenodd" fill="#d20019" d="M7.253 21.011v26.385h96.052V.566H57.658s-1.626.095-2.532.531c-1.075.517-2.274 2.04-2.274 2.04l-13.65 16.086s-.822.95-1.516 1.308c-.837.435-2.378.48-2.378.48H7.253M27.839 151.44h26.39V55.392H7.395v45.648s.098 1.62.53 2.529c.519 1.072 2.046 2.274 2.046 2.274l16.083 13.65s.95.827 1.313 1.52c.436.836.474 2.379.474 2.379v28.048m130.126-20.451v-26.385h-96.05v46.836h45.647s1.62-.1 2.53-.528c1.077-.525 2.269-2.047 2.269-2.047l13.653-16.084s.827-.95 1.52-1.315c.838-.436 2.378-.476 2.378-.476h28.053M137.381.56h-26.39v96.05h46.837V50.961s-.1-1.62-.537-2.53c-.515-1.078-2.039-2.268-2.039-2.268L139.17 32.509s-.95-.826-1.314-1.52c-.435-.836-.474-2.375-.474-2.375V.56"/>
	<path stroke="null" d="M184.262 47.527h17.639l12.924 36.008 12.923-36.008h17.314l-23.084 57.304h-14.631l-23.085-57.305m84.661 34.466l-6.34-16.177-6.422 16.177h12.762zM255.105 47.12h15.2l24.222 57.305h-16.906l-4.146-10.16h-21.947l-4.064 10.16h-16.582l24.223-57.305m42.19.407h14.713l23.41 30.074V47.527h15.606v56.898h-13.818L312.9 73.212v31.213h-15.605V47.528m82.505-.001h16.663l9.917 32.92 10.973-33.083h13.575l10.973 33.083 9.917-32.92h16.337l-19.02 57.304h-13.738l-11.46-32.757-11.38 32.757H398.82l-19.02-57.305m94.023.001h15.85v56.898h-15.85V47.528m18.995 48.28l10.162-9.591c2.76 3.334 5.363 5.283 8.858 5.283 3.982 0 6.504-2.68 6.504-7.965V47.527h15.686v36.089c0 7.153-1.79 12.193-5.609 16.013-3.737 3.74-9.105 5.77-15.606 5.77-9.916 0-16.013-4.144-19.995-9.59m49.882-48.282h14.71l23.41 30.074V47.527h15.608v56.898H582.61l-24.305-31.213v31.213h-15.604V47.528m62.398-.001h45.764v13.41h-30.158v8.617h27.312v12.438h-27.312v9.021h30.563v13.413H605.1v-56.9m53.92.001h14.712l23.409 30.074V47.527h15.606v56.898H698.93l-24.303-31.213v31.213H659.02V47.528"/>
</svg>